<svg xmlns="http://www.w3.org/2000/svg" data-name="Layer 1" viewBox="0 0 100 125" x="0px" y="0px"><path d="m50.00141,89.80647l-1.8584-6.3584c-2.53027-8.66113-8.00098-16.18457-15.82227-21.75586-8.28809-5.90332-13.07617-15.49902-12.80957-25.66895.40918-15.62891,12.93652-28.63965,28.51953-29.62012,8.51758-.53711,16.64258,2.37695,22.84473,8.20117,6.11719,5.74414,9.625,13.84961,9.625,22.2373,0,10.08301-4.97852,19.50293-13.31836,25.19727-7.30859,4.99023-12.75,12.5918-15.32324,21.40332l-1.85742,6.36426Zm.01562-80.46582c-.59668,0-1.19629.01855-1.79883.05664-14.0459.88379-25.33887,12.61328-25.70898,26.7041-.23926,9.1709,4.0791,17.82422,11.55176,23.14746,7.44238,5.30176,12.90332,12.26953,15.93555,20.29199,3.05664-8.17188,8.47559-15.18652,15.49414-19.97949,7.52051-5.13477,12.00977-13.62793,12.00977-22.71973,0-7.67383-3.08203-14.79492-8.67871-20.0498-5.1543-4.84082-11.77539-7.45117-18.80469-7.45117Z"/></svg>